<svg width="150" height="22" viewBox="0 0 150 22" fill="none" xmlns="http://www.w3.org/2000/svg">
<path d="M7.86849 3.74921C9.26174 1.24974 9.95849 0 11 0C12.0415 0 12.7383 1.24974 14.1315 3.74921L14.492 4.39585C14.8879 5.10612 15.0859 5.46126 15.3946 5.69559C15.7032 5.9299 16.0877 6.01689 16.8565 6.19085L17.5565 6.34922C20.2621 6.96144 21.615 7.2675 21.9368 8.30253C22.2587 9.33744 21.3364 10.416 19.4919 12.5729L19.0147 13.1309C18.4905 13.7439 18.2284 14.0504 18.1105 14.4295C17.9926 14.8086 18.0322 15.2175 18.1116 16.0353L18.1836 16.7798C18.4625 19.6576 18.6019 21.0966 17.7593 21.7362C16.9167 22.3759 15.65 21.7927 13.1168 20.6263L12.4613 20.3245C11.7415 19.9931 11.3815 19.8273 11 19.8273C10.6185 19.8273 10.2585 19.9931 9.53868 20.3245L8.88321 20.6263C6.34993 21.7927 5.08329 22.3759 4.24067 21.7362C3.39803 21.0966 3.53747 19.6576 3.81634 16.7798L3.88848 16.0353C3.96772 15.2175 4.00735 14.8086 3.88944 14.4295C3.77155 14.0504 3.50946 13.7439 2.98531 13.1309L2.5081 12.5729C0.66357 10.416 -0.258695 9.33744 0.0631645 8.30253C0.385011 7.2675 1.73784 6.96144 4.44349 6.34922L5.14347 6.19085C5.91233 6.01689 6.29676 5.9299 6.60543 5.69559C6.91411 5.46126 7.11208 5.10613 7.50801 4.39585L7.86849 3.74921Z" fill="#50C647"/>
<path d="M39.8685 3.74921C41.2617 1.24974 41.9585 0 43 0C44.0415 0 44.7383 1.24974 46.1315 3.74921L46.492 4.39585C46.8879 5.10612 47.0859 5.46126 47.3946 5.69559C47.7032 5.9299 48.0877 6.01689 48.8565 6.19085L49.5565 6.34922C52.2621 6.96144 53.615 7.2675 53.9368 8.30253C54.2587 9.33744 53.3364 10.416 51.4919 12.5729L51.0147 13.1309C50.4905 13.7439 50.2284 14.0504 50.1105 14.4295C49.9926 14.8086 50.0322 15.2175 50.1116 16.0353L50.1836 16.7798C50.4625 19.6576 50.6019 21.0966 49.7593 21.7362C48.9167 22.3759 47.65 21.7927 45.1168 20.6263L44.4613 20.3245C43.7415 19.9931 43.3815 19.8273 43 19.8273C42.6185 19.8273 42.2585 19.9931 41.5387 20.3245L40.8832 20.6263C38.3499 21.7927 37.0833 22.3759 36.2407 21.7362C35.398 21.0966 35.5375 19.6576 35.8163 16.7798L35.8885 16.0353C35.9677 15.2175 36.0073 14.8086 35.8894 14.4295C35.7715 14.0504 35.5095 13.7439 34.9853 13.1309L34.5081 12.5729C32.6636 10.416 31.7413 9.33744 32.0632 8.30253C32.385 7.2675 33.7378 6.96144 36.4435 6.34922L37.1435 6.19085C37.9123 6.01689 38.2968 5.9299 38.6054 5.69559C38.9141 5.46126 39.1121 5.10613 39.508 4.39585L39.8685 3.74921Z" fill="#50C647"/>
<path d="M71.8685 3.74921C73.2617 1.24974 73.9585 0 75 0C76.0415 0 76.7383 1.24974 78.1315 3.74921L78.492 4.39585C78.8879 5.10612 79.0859 5.46126 79.3946 5.69559C79.7032 5.9299 80.0877 6.01689 80.8565 6.19085L81.5565 6.34922C84.2621 6.96144 85.615 7.2675 85.9368 8.30253C86.2587 9.33744 85.3364 10.416 83.4919 12.5729L83.0147 13.1309C82.4905 13.7439 82.2284 14.0504 82.1105 14.4295C81.9926 14.8086 82.0322 15.2175 82.1116 16.0353L82.1836 16.7798C82.4625 19.6576 82.6019 21.0966 81.7593 21.7362C80.9167 22.3759 79.65 21.7927 77.1168 20.6263L76.4613 20.3245C75.7415 19.9931 75.3815 19.8273 75 19.8273C74.6185 19.8273 74.2585 19.9931 73.5387 20.3245L72.8832 20.6263C70.3499 21.7927 69.0833 22.3759 68.2407 21.7362C67.398 21.0966 67.5375 19.6576 67.8163 16.7798L67.8885 16.0353C67.9677 15.2175 68.0073 14.8086 67.8894 14.4295C67.7715 14.0504 67.5095 13.7439 66.9853 13.1309L66.5081 12.5729C64.6636 10.416 63.7413 9.33744 64.0632 8.30253C64.385 7.2675 65.7378 6.96144 68.4435 6.34922L69.1435 6.19085C69.9123 6.01689 70.2968 5.9299 70.6054 5.69559C70.9141 5.46126 71.1121 5.10613 71.508 4.39585L71.8685 3.74921Z" fill="#50C647"/>
<path d="M103.868 3.74921C105.262 1.24974 105.958 0 107 0C108.042 0 108.738 1.24974 110.132 3.74921L110.492 4.39585C110.888 5.10612 111.086 5.46126 111.395 5.69559C111.703 5.9299 112.088 6.01689 112.857 6.19085L113.557 6.34922C116.262 6.96144 117.615 7.2675 117.937 8.30253C118.259 9.33744 117.336 10.416 115.492 12.5729L115.015 13.1309C114.49 13.7439 114.228 14.0504 114.111 14.4295C113.993 14.8086 114.032 15.2175 114.112 16.0353L114.184 16.7798C114.463 19.6576 114.602 21.0966 113.759 21.7362C112.917 22.3759 111.65 21.7927 109.117 20.6263L108.461 20.3245C107.742 19.9931 107.382 19.8273 107 19.8273C106.618 19.8273 106.258 19.9931 105.539 20.3245L104.883 20.6263C102.35 21.7927 101.083 22.3759 100.241 21.7362C99.398 21.0966 99.5375 19.6576 99.8163 16.7798L99.8885 16.0353C99.9677 15.2175 100.007 14.8086 99.8894 14.4295C99.7715 14.0504 99.5095 13.7439 98.9853 13.1309L98.5081 12.5729C96.6636 10.416 95.7413 9.33744 96.0632 8.30253C96.385 7.2675 97.7378 6.96144 100.443 6.34922L101.143 6.19085C101.912 6.01689 102.297 5.9299 102.605 5.69559C102.914 5.46126 103.112 5.10613 103.508 4.39585L103.868 3.74921Z" fill="#50C647"/>
<path d="M136.96 4.35782L136.96 4.35785L136.6 5.00448C136.6 5.00448 136.6 5.00449 136.6 5.00449C136.575 5.04977 136.549 5.09522 136.524 5.14074C136.208 5.71131 135.886 6.29298 135.361 6.6912L135.361 6.69122C134.829 7.09504 134.184 7.2391 133.566 7.37709C133.517 7.38807 133.468 7.399 133.419 7.41003L133.419 7.41003M136.96 4.35782L133.143 6.19085L133.419 7.41003M136.96 4.35782C137.677 3.07158 138.149 2.23231 138.559 1.69731C138.756 1.43958 138.888 1.32314 138.962 1.27333C138.981 1.26099 138.993 1.25443 139 1.25121C139.007 1.25443 139.019 1.26099 139.038 1.27333C139.112 1.32314 139.244 1.43958 139.441 1.69731C139.851 2.23231 140.323 3.07158 141.04 4.35782L141.04 4.35793L141.4 5.00441M136.96 4.35782L141.4 5.00441M133.419 7.41003L132.719 7.5684L133.419 7.41003ZM141.4 5.00441C141.4 5.00443 141.4 5.00446 141.4 5.00448C141.4 5.00451 141.4 5.00454 141.4 5.00458C141.425 5.04973 141.451 5.09506 141.476 5.14045C141.792 5.71115 142.114 6.29289 142.639 6.69117L142.639 6.69119M141.4 5.00441L142.639 6.69119M142.639 6.69119C143.171 7.09502 143.816 7.2391 144.434 7.37707C144.483 7.38805 144.532 7.399 144.581 7.41003L144.857 6.19084M142.639 6.69119L144.857 6.19084M144.857 6.19084L144.581 7.41003L145.281 7.5684C145.281 7.5684 145.281 7.5684 145.281 7.56841C146.676 7.88412 147.577 8.09157 148.182 8.33027C148.471 8.44421 148.615 8.53682 148.683 8.59569C148.732 8.63729 148.738 8.65542 148.743 8.67218L148.743 8.6737L148.743 8.67374M144.857 6.19084L148.743 8.67374M148.743 8.67374L148.743 8.67406C148.749 8.69237 148.757 8.71935 148.737 8.80013C148.711 8.90329 148.642 9.07636 148.469 9.351C148.108 9.92354 147.491 10.6506 146.542 11.7605L146.542 11.7605M148.743 8.67374L146.542 11.7605M146.542 11.7605L146.065 12.3185C146.032 12.3565 146 12.3945 145.967 12.4326C145.541 12.9281 145.114 13.4254 144.917 14.0584C144.722 14.6864 144.787 15.3418 144.852 16.0036C144.857 16.0543 144.862 16.105 144.867 16.1557C144.867 16.1558 144.867 16.1559 144.867 16.156L144.939 16.9002L144.939 16.9003M146.542 11.7605L144.939 16.9003M144.939 16.9003C145.083 18.3794 145.174 19.3522 145.143 20.0417C145.128 20.3741 145.087 20.5591 145.05 20.6582C145.033 20.7028 145.02 20.7225 145.016 20.7283C145.012 20.733 145.01 20.7358 145.003 20.7406C145.002 20.742 145 20.7429 145 20.7434C144.995 20.7446 144.983 20.7475 144.958 20.7491C144.878 20.7539 144.715 20.7425 144.416 20.6569C143.792 20.478 142.946 20.0924 141.64 19.4909L141.64 19.4908M144.939 16.9003L141.64 19.4908M141.64 19.4908L140.984 19.1891C140.984 19.1891 140.984 19.1891 140.984 19.1891C140.938 19.1677 140.891 19.1461 140.844 19.1244C140.271 18.8582 139.665 18.5773 139 18.5773C138.335 18.5773 137.729 18.8582 137.156 19.1244C137.109 19.1461 137.062 19.1677 137.016 19.1891C137.016 19.1891 137.016 19.1891 137.016 19.1891L136.36 19.4908L136.883 20.6263L136.36 19.4908C135.054 20.0924 134.208 20.478 133.584 20.6569C133.285 20.7425 133.122 20.7539 133.042 20.7491C133.017 20.7475 133.005 20.7446 133 20.7434C133 20.7429 132.998 20.742 132.996 20.7406L132.241 21.7362L132.996 20.7406C132.99 20.7357 132.988 20.733 132.984 20.7283C132.98 20.7225 132.967 20.7028 132.95 20.6582C132.913 20.5591 132.872 20.3741 132.857 20.0417C132.826 19.3522 132.917 18.3794 133.061 16.9003L133.133 16.1558L131.89 16.0354M141.64 19.4908L131.89 16.0354M131.89 16.0354L133.133 16.1558C133.138 16.1049 133.143 16.0539 133.148 16.0031M131.89 16.0354L133.148 16.0031M133.148 16.0031C133.213 15.3415 133.278 14.6862 133.083 14.0584L133.148 16.0031ZM129.818 8.33027C130.423 8.09157 131.324 7.88412 132.719 7.5684L133.083 14.0582C132.886 13.4255 132.459 12.9282 132.033 12.4329C132.001 12.3948 131.968 12.3567 131.935 12.3185L131.935 12.3185L131.458 11.7604L130.522 12.5613L131.458 11.7604C130.509 10.6506 129.891 9.92354 129.531 9.35101C129.358 9.07638 129.289 8.90331 129.263 8.80015C129.243 8.71937 129.251 8.69238 129.257 8.67407L129.257 8.67375L129.257 8.67369L129.257 8.67219C129.262 8.65541 129.268 8.63728 129.317 8.59568C129.385 8.53681 129.529 8.4442 129.818 8.33027Z" fill="#D9D9D9" stroke="#50C647" stroke-width="2.5"/>
<path d="M139 18.5V2.5L134 7L130.5 9.5L133 14.5L134 20.5L139 18.5Z" fill="#50C647"/>
</svg>
